<svg xmlns="http://www.w3.org/2000/svg" xmlns:xlink="http://www.w3.org/1999/xlink" width="500" zoomAndPan="magnify" viewBox="0 0 375 374.999991" height="500" preserveAspectRatio="xMidYMid meet" version="1.0"><defs><clipPath id="ab6e01e843"><path d="M 0 0 L 374.25 0 L 374.25 375 L 0 375 Z M 0 0 " clip-rule="nonzero"/></clipPath></defs><g clip-path="url(#ab6e01e843)"><path fill="#90a4ae" d="M 347.945312 161.8125 C 346.253906 161.75 344.503906 161.628906 343.023438 161.570312 C 331.578125 160.875 329.855469 160.90625 328.707031 162.625 C 323.785156 169.996094 320.28125 171.203125 315.8125 172.714844 C 309.894531 174.769531 303.160156 177.0625 292.890625 192.496094 C 289.296875 197.871094 289.871094 203.550781 290.472656 209.589844 C 292.074219 225.144531 294.28125 246.496094 216.359375 281.105469 C 201.109375 287.902344 182.625 286 175.40625 284.882812 C 174.410156 284.730469 173.445312 285.183594 172.902344 286.027344 C 150.644531 321.183594 120.714844 362.136719 114.886719 370.078125 C 109.175781 368.355469 89.726562 360.292969 94.5 331.570312 C 94.558594 331.332031 94.558594 331.089844 94.53125 330.847656 C 92.929688 317.890625 90.695312 282.3125 99.785156 273.222656 C 104.316406 268.691406 115.246094 264.828125 127.871094 260.386719 C 145.839844 254.015625 168.128906 246.101562 182.566406 232.179688 L 217.386719 232.179688 C 218.777344 232.179688 219.894531 231.0625 219.894531 229.671875 C 219.894531 228.285156 218.777344 227.167969 217.386719 227.167969 L 181.570312 227.167969 C 181.265625 227.167969 152.183594 227.105469 140.917969 221.457031 C 128.566406 215.296875 124.398438 209.832031 124.398438 199.835938 C 124.398438 199.050781 124.003906 198.292969 123.402344 197.839844 C 101.808594 181.652344 111.625 166.070312 112.046875 165.4375 C 112.558594 164.648438 112.589844 163.652344 112.167969 162.839844 C 111.714844 162.023438 110.867188 161.507812 109.933594 161.507812 C 93.804688 161.507812 82.449219 139.25 82.359375 139.039062 C 82.085938 138.554688 81.722656 138.164062 81.210938 137.921875 C 70.367188 132.484375 64.628906 115.664062 64.570312 115.484375 C 64.328125 114.726562 63.722656 114.152344 63 113.914062 C 51.007812 109.894531 47.898438 100.109375 47.082031 95.21875 C 59.554688 96.636719 107.515625 102.496094 132.886719 112.644531 C 133.1875 112.765625 133.519531 112.824219 133.820312 112.824219 C 134.816406 112.824219 135.753906 112.222656 136.148438 111.253906 C 136.660156 109.957031 136.027344 108.507812 134.757812 107.992188 C 105.460938 96.273438 49.105469 90.386719 44.757812 89.933594 C 23.34375 84.496094 22.921875 69.183594 22.921875 68.519531 C 22.921875 67.585938 22.378906 66.707031 21.535156 66.285156 C 21.441406 66.226562 10.992188 60.820312 10.992188 50.609375 C 10.992188 49.703125 11.296875 49.34375 11.597656 49.101562 C 12.441406 48.464844 13.863281 48.226562 15.582031 48.226562 C 21.382812 48.226562 30.867188 51.035156 35.515625 52.421875 L 37.628906 53.027344 C 37.691406 53.058594 37.75 53.027344 37.8125 53.058594 C 37.84375 53.058594 37.902344 53.085938 37.960938 53.117188 C 38.386719 53.179688 79.609375 59.21875 108.664062 76.644531 C 109.054688 76.886719 109.507812 77.007812 109.933594 77.007812 C 110.808594 77.007812 111.625 76.582031 112.105469 75.796875 C 112.800781 74.589844 112.410156 73.050781 111.230469 72.355469 C 82.085938 54.871094 42.523438 48.707031 38.898438 48.164062 C 24.976562 43.695312 5.011719 33.578125 5.011719 26.753906 C 5.011719 26.359375 5.105469 26.027344 5.617188 25.632812 C 10.871094 21.527344 35.425781 25.632812 49.652344 29.199219 C 50.796875 29.46875 51.976562 28.925781 52.519531 27.871094 C 53.03125 26.8125 52.761719 25.515625 51.824219 24.789062 C 43.882812 18.445312 35.152344 10.867188 30.773438 6.398438 C 47.507812 11.347656 104.164062 34.726562 150.191406 70.511719 C 150.3125 70.605469 150.460938 70.695312 150.613281 70.785156 C 151.699219 71.328125 153.121094 71.992188 154.78125 72.75 C 170.335938 79.964844 211.679688 99.175781 233 147.132812 C 236.777344 155.679688 241.214844 160.695312 246.53125 162.414062 C 253.6875 164.769531 260.878906 160.695312 267.21875 157.070312 C 268.910156 156.101562 270.570312 155.167969 272.234375 154.351562 C 276.671875 152.085938 281.777344 148.402344 287.183594 144.445312 C 296.03125 138.011719 306.027344 130.734375 312.882812 130.734375 C 322.457031 130.734375 333.632812 134.960938 333.632812 146.890625 C 333.632812 148.007812 334.355469 149.007812 335.445312 149.308594 C 335.59375 149.339844 345.410156 152.207031 349.910156 158.035156 C 350.847656 159.214844 351.539062 160.511719 351.902344 161.960938 C 350.816406 161.933594 349.425781 161.902344 347.945312 161.8125 Z M 374.523438 132.605469 C 373.648438 131.550781 372.078125 131.367188 370.992188 132.214844 C 370.296875 132.789062 360.84375 140.488281 352.597656 153.476562 C 348.1875 148.824219 341.695312 146.136719 338.585938 145.050781 C 337.527344 131.699219 325.144531 125.722656 312.882812 125.722656 C 304.398438 125.722656 294.160156 133.179688 284.222656 140.398438 C 278.996094 144.203125 274.074219 147.796875 269.96875 149.851562 C 268.246094 150.699219 266.496094 151.695312 264.742188 152.722656 C 258.761719 156.101562 253.144531 159.335938 248.101562 157.675781 C 244.265625 156.40625 240.734375 152.175781 237.5625 145.109375 C 215.484375 95.398438 172.902344 75.648438 156.894531 68.1875 C 155.382812 67.492188 154.085938 66.917969 153.058594 66.40625 C 98.667969 24.15625 32.917969 0.355469 26.394531 0.355469 C 24.160156 0.355469 23.4375 1.925781 23.253906 2.410156 C 22.742188 3.828125 21.867188 6.398438 40.46875 21.980469 C 27.9375 19.472656 8.847656 16.753906 2.507812 21.679688 C 0.875 22.976562 0 24.730469 0 26.753906 C 0 32.851562 7.15625 38.652344 15.25 43.210938 C 12.535156 43.273438 10.269531 43.847656 8.605469 45.085938 C 7.398438 45.988281 5.980469 47.679688 5.980469 50.609375 C 5.980469 61.664062 14.707031 68.035156 18.03125 70.058594 C 18.664062 74.742188 22.199219 88.695312 41.917969 94.371094 C 42.523438 99.414062 45.511719 112.734375 60.25 118.261719 C 61.820312 122.398438 67.679688 136.261719 78.25 142 C 80.363281 145.925781 90.664062 163.625 106.15625 166.222656 C 103.742188 172.714844 101.414062 187.058594 119.386719 201.101562 C 119.839844 213.96875 127.117188 220.191406 138.652344 225.957031 C 147.621094 230.429688 165.5625 231.695312 175.167969 232.058594 C 161.546875 243.144531 142.125 250 126.210938 255.644531 C 112.980469 260.296875 101.597656 264.34375 96.21875 269.691406 C 84.050781 281.890625 88.699219 324.625 89.515625 331.089844 C 83.476562 368.566406 115.097656 375.332031 115.429688 375.394531 C 115.578125 375.421875 115.761719 375.453125 115.910156 375.453125 C 116.695312 375.453125 117.453125 375.0625 117.933594 374.425781 C 118.265625 373.972656 151.609375 328.855469 176.285156 290.074219 C 186.160156 291.464844 203.375 292.371094 218.382812 285.695312 C 299.625 249.574219 297.238281 226.171875 295.488281 209.074219 C 294.914062 203.519531 294.460938 199.171875 297.058594 195.273438 C 306.390625 181.261719 312.007812 179.328125 317.445312 177.457031 C 322.003906 175.914062 326.746094 174.285156 332.332031 166.191406 C 334.234375 166.070312 339.277344 166.371094 342.722656 166.554688 C 343.839844 166.644531 344.804688 166.671875 345.710938 166.734375 C 342.449219 174.675781 340.214844 183.796875 340.214844 193.886719 C 340.214844 195.242188 341.332031 196.390625 342.722656 196.390625 C 344.113281 196.390625 345.230469 195.242188 345.230469 193.886719 C 345.230469 183.859375 347.707031 174.796875 351.179688 166.945312 C 354.589844 167.007812 355.527344 166.703125 356.3125 165.980469 C 356.824219 165.496094 357.160156 164.710938 357.160156 164.015625 C 357.160156 161.839844 356.644531 159.847656 355.800781 158.066406 C 363.984375 144.414062 373.949219 136.292969 374.132812 136.140625 C 375.21875 135.265625 375.398438 133.695312 374.523438 132.605469 " fill-opacity="1" fill-rule="nonzero"/></g><path fill="#90a4ae" d="M 145.75 148.644531 C 146.835938 148.644531 147.863281 147.917969 148.167969 146.800781 C 148.558594 145.472656 147.773438 144.082031 146.445312 143.722656 C 104.40625 131.699219 86.042969 137.53125 85.289062 137.769531 C 83.960938 138.222656 83.265625 139.613281 83.6875 140.941406 C 84.109375 142.242188 85.53125 142.964844 86.859375 142.542969 C 87.039062 142.484375 104.796875 137.046875 145.054688 148.523438 C 145.296875 148.613281 145.539062 148.644531 145.75 148.644531 " fill-opacity="1" fill-rule="nonzero"/><path fill="#90a4ae" d="M 138.140625 287.476562 L 96.371094 323.265625 C 95.316406 324.171875 95.195312 325.773438 96.101562 326.800781 C 96.582031 327.402344 97.308594 327.707031 98.003906 327.707031 C 98.578125 327.707031 99.179688 327.496094 99.632812 327.070312 L 141.433594 291.285156 C 142.457031 290.378906 142.609375 288.777344 141.703125 287.75 C 140.796875 286.691406 139.195312 286.570312 138.140625 287.476562 " fill-opacity="1" fill-rule="nonzero"/><path fill="#90a4ae" d="M 193.738281 203.308594 L 128.082031 197.328125 C 126.695312 197.238281 125.484375 198.234375 125.363281 199.625 C 125.214844 200.980469 126.242188 202.21875 127.628906 202.339844 L 193.285156 208.320312 C 193.347656 208.320312 193.4375 208.320312 193.5 208.320312 C 194.796875 208.320312 195.882812 207.355469 196.003906 206.027344 C 196.125 204.667969 195.097656 203.429688 193.738281 203.308594 " fill-opacity="1" fill-rule="nonzero"/></svg>